<?xml version="1.0" standalone="no"?>
<!DOCTYPE svg PUBLIC "-//W3C//DTD SVG 20010904//EN"
 "http://www.w3.org/TR/2001/REC-SVG-20010904/DTD/svg10.dtd">
<svg version="1.0" xmlns="http://www.w3.org/2000/svg"
 width="611.000000pt" height="190.000000pt" viewBox="0 0 611.000000 190.000000"
 preserveAspectRatio="xMidYMid meet">
<metadata>
Created by potrace 1.16, written by Peter Selinger 2001-2019
</metadata>
<g transform="translate(0.000000,190.000000) scale(0.100000,-0.100000)"
fill="#000000" stroke="none">
<path d="M530 1785 c-196 -49 -369 -190 -455 -370 -55 -116 -65 -160 -65 -292
0 -128 15 -196 69 -310 66 -137 135 -229 285 -378 165 -163 286 -255 337 -255
78 0 410 298 529 474 63 95 124 221 145 301 18 70 20 254 4 323 -6 26 -31 89
-56 141 -38 79 -58 108 -127 175 -91 91 -160 135 -268 174 -62 22 -92 26 -208
29 -91 1 -153 -2 -190 -12z m285 -140 c100 -21 186 -67 264 -141 173 -163 216
-406 109 -624 -43 -89 -150 -195 -241 -239 -221 -107 -486 -59 -650 119 -200
216 -190 543 24 744 137 130 311 179 494 141z"/>
<path d="M690 1565 l0 -35 -87 0 c-69 0 -94 -4 -117 -19 -47 -31 -66 -69 -66
-133 l0 -58 75 0 75 0 0 35 0 35 86 0 c71 0 93 4 121 21 45 28 63 66 63 134
l0 55 -75 0 -75 0 0 -35z"/>
<path d="M301 1236 c-22 -23 -23 -31 -19 -148 3 -99 8 -132 25 -170 30 -66
105 -143 172 -175 49 -25 67 -28 151 -28 76 0 104 4 142 22 53 24 128 90 158
138 19 31 23 33 93 36 119 7 167 58 167 181 0 73 -21 117 -72 148 -31 19 -51
20 -414 20 l-381 0 -22 -24z"/>
<path d="M1634 1742 c-83 -35 -114 -74 -114 -145 0 -42 5 -53 30 -77 l30 -28
-35 -12 c-114 -38 -157 -180 -79 -261 29 -30 105 -59 155 -59 57 0 131 23 179
55 l49 33 12 -30 c13 -31 54 -58 89 -58 31 0 88 26 137 63 35 27 42 38 43 66
l0 35 -27 -26 c-70 -64 -112 -75 -131 -33 -23 50 -15 84 37 149 78 99 104 158
109 253 5 100 -1 105 -87 73 -57 -21 -60 -24 -89 -88 -43 -93 -81 -215 -88
-281 -7 -63 -21 -82 -81 -118 -84 -49 -167 -29 -206 50 -16 31 -17 42 -7 72
17 50 64 87 109 84 46 -4 61 6 61 37 0 25 -4 28 -52 38 -34 8 -50 51 -37 100
10 36 59 86 85 86 16 0 39 -34 48 -72 8 -35 29 -36 55 -2 28 35 26 55 -4 84
-34 32 -131 38 -191 12z"/>
<path d="M2619 1746 c-131 -35 -224 -137 -264 -293 -28 -109 -16 -204 32 -255
54 -56 132 -46 207 26 l44 44 6 -33 c13 -67 81 -91 160 -57 51 23 145 107 177
159 11 18 29 33 39 33 18 0 18 -1 0 -42 -28 -61 -27 -132 2 -152 12 -9 31 -16
41 -16 22 0 83 31 121 63 l30 24 17 -31 c23 -44 76 -63 131 -47 23 7 54 25 70
41 23 24 34 27 66 23 22 -3 49 0 61 6 20 11 21 10 21 -35 0 -38 3 -45 16 -40
9 3 33 9 55 12 39 7 39 7 39 53 0 71 16 111 62 158 44 45 69 55 63 26 -2 -10
-16 -69 -30 -131 -15 -63 -25 -115 -23 -117 2 -2 28 1 59 7 l56 9 19 82 c15
68 25 89 57 125 38 40 75 57 64 29 -21 -56 -38 -140 -35 -182 2 -41 7 -52 29
-64 37 -20 69 -9 156 54 20 15 22 15 39 -14 21 -36 64 -56 99 -47 15 4 46 25
70 47 40 36 45 39 51 23 15 -50 25 -64 47 -69 31 -8 70 8 123 52 36 31 44 43
44 71 l0 34 -41 -36 c-74 -67 -83 -39 -38 119 18 63 29 118 25 122 -3 4 -27
-3 -52 -16 -42 -20 -48 -20 -63 -7 -69 63 -225 -22 -269 -146 -10 -30 -32 -63
-55 -84 -62 -56 -71 -43 -37 54 11 31 23 80 26 108 6 44 3 55 -15 73 -11 11
-28 21 -36 21 -25 0 -72 -28 -116 -67 -31 -28 -39 -32 -38 -17 5 46 -2 65 -26
76 -32 14 -76 -4 -132 -55 -24 -22 -43 -37 -43 -35 0 3 7 25 15 48 8 24 14 45
12 47 -2 2 -28 -2 -57 -8 -50 -11 -53 -13 -76 -65 -13 -30 -27 -72 -30 -94 -5
-27 -16 -48 -36 -65 -57 -48 -78 -26 -54 56 9 29 16 77 16 106 0 62 -8 68 -85
68 -100 -1 -190 -72 -216 -169 -13 -50 -54 -96 -86 -96 -33 0 -30 37 12 154
19 53 35 102 35 107 0 20 -46 -4 -78 -42 -19 -22 -42 -43 -51 -49 -16 -8 -18
-4 -13 39 4 42 2 50 -16 55 -33 11 -72 -11 -87 -49 -19 -44 -19 -74 0 -95 13
-14 10 -21 -35 -68 -60 -63 -95 -75 -122 -42 -24 29 -18 85 19 205 28 90 54
145 89 192 41 54 34 69 -39 82 -81 14 -169 13 -228 -3z m136 -36 l27 -10 -26
-30 c-50 -60 -116 -235 -116 -307 0 -29 -74 -103 -103 -103 -135 0 -35 380
118 446 37 16 65 17 100 4z m665 -248 c-31 -42 -36 -92 -12 -145 l20 -45 -22
-21 c-28 -27 -41 -26 -60 1 -19 26 -20 86 -5 142 12 43 58 96 84 96 13 0 13
-4 -5 -28z m1020 -2 c26 -49 -52 -210 -101 -210 -42 0 -45 66 -6 145 39 79 84
107 107 65z"/>
<path d="M5073 1741 c-102 -35 -174 -114 -175 -193 -1 -62 15 -88 56 -88 19 0
44 9 57 19 l24 19 -27 29 c-16 16 -28 38 -28 50 0 37 44 87 102 117 48 24 64
27 103 22 82 -13 147 -91 160 -192 15 -110 -40 -264 -106 -297 -34 -16 -39
-16 -88 -1 -28 10 -51 20 -51 24 0 4 11 15 24 23 49 32 73 94 91 229 3 26 17
63 30 82 31 46 24 70 -19 62 -41 -8 -95 -53 -118 -98 -11 -20 -27 -82 -37
-138 -21 -121 -32 -135 -100 -131 -89 4 -149 -52 -106 -99 21 -24 53 -25 100
-6 29 13 40 12 82 -1 101 -31 234 3 322 82 22 21 55 67 73 103 29 59 33 76 32
147 0 94 -21 145 -81 194 -72 60 -215 79 -320 42z"/>
<path d="M5975 1741 c-46 -15 -52 -21 -82 -81 -39 -78 -80 -204 -93 -284 -7
-42 -17 -68 -36 -87 -53 -56 -118 -62 -150 -14 -19 29 -13 40 23 50 88 21 154
95 134 147 -37 99 -197 54 -261 -72 -25 -48 -27 -138 -4 -181 39 -76 157 -76
253 0 28 22 41 28 41 18 0 -27 40 -66 75 -73 46 -8 95 10 155 57 41 32 50 45
50 70 l0 31 -51 -41 c-80 -64 -119 -51 -119 39 0 35 7 50 44 92 86 98 134 236
112 322 -7 30 -21 31 -91 7z"/>
<path d="M2487 746 c-98 -36 -172 -122 -172 -203 0 -31 6 -49 22 -65 22 -21
25 -22 65 -8 51 18 57 32 24 61 -36 31 -34 70 6 114 98 112 246 96 309 -32 49
-99 20 -284 -57 -360 -36 -37 -59 -40 -128 -17 l-48 16 36 30 c49 40 66 76 82
177 8 47 14 89 14 92 0 3 11 23 25 43 30 45 24 60 -21 53 -82 -14 -133 -89
-154 -232 -7 -44 -18 -92 -26 -107 -12 -24 -18 -26 -73 -25 -67 2 -113 -22
-119 -62 -6 -40 16 -54 73 -46 27 4 66 6 85 5 19 -2 78 -3 130 -4 84 0 101 3
146 26 69 36 148 124 170 190 26 74 24 181 -3 233 -50 95 -126 135 -258 134
-50 0 -107 -6 -128 -13z"/>
<path d="M3035 515 c-127 -69 -173 -244 -84 -319 36 -31 107 -35 165 -11 40
17 149 118 190 176 15 21 29 39 33 39 10 0 61 -97 61 -117 0 -21 -39 -63 -58
-63 -7 0 -22 16 -33 35 -12 19 -24 35 -27 35 -13 0 -62 -55 -62 -70 0 -60 120
-68 188 -13 45 37 82 98 82 138 0 17 -12 50 -26 75 -19 33 -24 53 -19 77 5 30
4 33 -17 32 -61 -3 -77 -14 -115 -76 -87 -143 -183 -222 -244 -201 -27 9 -49
34 -49 55 0 5 23 16 50 26 28 10 66 32 85 49 28 24 35 37 35 67 0 21 -6 45
-13 55 -19 26 -102 32 -142 11z"/>
<path d="M3695 516 c-41 -18 -101 -83 -120 -128 -8 -21 -15 -63 -15 -94 0 -50
3 -59 34 -90 30 -30 40 -34 85 -34 59 0 103 16 147 53 37 31 44 33 44 12 0
-32 47 -65 90 -65 35 0 48 7 90 46 47 44 50 45 50 23 0 -14 7 -35 16 -47 26
-38 102 -24 148 27 27 29 34 26 42 -15 7 -36 7 -36 47 -30 53 9 57 12 57 49 0
76 12 106 65 164 29 32 56 55 60 51 4 -3 -5 -40 -19 -81 -45 -129 -31 -187 45
-187 61 0 153 73 242 192 l36 48 30 -54 c37 -65 38 -80 6 -111 -33 -34 -53
-31 -71 10 -17 42 -27 43 -59 9 -74 -80 42 -132 146 -65 51 32 84 78 94 131 5
27 0 46 -20 85 -20 36 -25 58 -21 83 l5 34 -47 -7 c-26 -4 -50 -9 -53 -11 -3
-2 -23 -32 -44 -68 -44 -76 -153 -196 -178 -196 -24 0 -22 25 9 106 14 37 26
84 27 105 3 91 -74 92 -174 2 -21 -19 -39 -33 -39 -30 0 2 7 24 15 47 8 24 13
45 11 47 -2 3 -25 1 -51 -3 -56 -8 -75 -32 -101 -133 -19 -74 -65 -134 -99
-129 -16 2 -19 9 -17 38 2 28 40 167 59 218 8 19 -32 15 -68 -7 -32 -20 -33
-20 -57 0 -31 24 -82 24 -130 2 -57 -27 -120 -98 -135 -151 -10 -35 -25 -55
-56 -80 -67 -51 -130 -42 -151 23 -23 68 18 180 63 173 19 -3 22 -9 22 -43 0
-34 3 -40 20 -37 46 9 75 32 75 62 0 59 -82 88 -155 56z m413 -38 c28 -28 -3
-140 -55 -196 -27 -29 -35 -32 -52 -22 -42 22 -15 139 46 203 29 30 43 33 61
15z"/>
<path d="M5201 519 c-18 -6 -55 -32 -81 -58 -38 -39 -50 -59 -60 -103 -16 -71
-6 -123 30 -160 47 -47 131 -36 188 25 21 22 27 24 56 15 49 -15 106 13 106
53 0 34 -4 35 -37 9 -29 -22 -73 -27 -73 -7 0 6 7 34 15 61 18 59 20 147 3
164 -14 14 -98 14 -147 1z m53 -56 c-23 -36 -24 -121 -2 -155 15 -23 15 -28 2
-47 -19 -26 -60 -27 -74 -2 -35 65 21 231 78 231 12 0 11 -5 -4 -27z"/>
</g>
</svg>
